<svg width="30" height="30" viewBox="0 0 30 30" fill="none" xmlns="http://www.w3.org/2000/svg">
<path d="M17.6275 11.2962L15.125 10.8563L15.3413 9.625L17.9263 10.0794C18.1194 9.75071 18.395 9.47821 18.7259 9.28888C19.0567 9.09955 19.4313 8.99997 19.8125 9H22.2406C22.4531 9 22.625 9.17187 22.625 9.38437V12.9906C22.625 13.2031 22.4525 13.375 22.2406 13.375H19.8125C19.2511 13.3751 18.7112 13.1593 18.3045 12.7723C17.8978 12.3854 17.6554 11.8569 17.6275 11.2962Z" fill="black"/>
<path fill-rule="evenodd" clip-rule="evenodd" d="M18.7531 14.3519L18.1719 19H13.875V18.2C13.875 17.9512 13.6388 17.75 13.3475 17.75H8.30375C4.8225 17.75 2 20.1562 2 23.125C2 23.2625 2.13125 23.375 2.29375 23.375H5.13875C5.21546 24.2301 5.60936 25.0255 6.24296 25.6048C6.87655 26.1841 7.70399 26.5053 8.5625 26.5053C9.42101 26.5053 10.2484 26.1841 10.882 25.6048C11.5156 25.0255 11.9095 24.2301 11.9862 23.375H12.555C12.5788 23.375 12.6021 23.3746 12.625 23.3737V23.375H19.1038C19.23 23.8 19.5931 24.0719 19.99 24.1562C20.255 24.9507 20.801 25.621 21.5253 26.0414C22.2497 26.4618 23.1026 26.6033 23.9239 26.4393C24.7452 26.2753 25.4783 25.8172 25.9857 25.1509C26.4931 24.4846 26.7397 23.6559 26.6794 22.8206C26.9575 22.5306 27.0975 22.105 26.9263 21.6444C26.7297 21.1164 26.4255 20.6351 26.033 20.231C25.6404 19.8269 25.1681 19.5088 24.6461 19.2971C24.124 19.0853 23.5636 18.9844 23.0005 19.0008C22.4374 19.0173 21.8838 19.1506 21.375 19.3925V14.625H19.8125C19.4419 14.6251 19.0774 14.5312 18.7531 14.3519ZM10.0938 23.375H7.03125C7.10297 23.7282 7.2946 24.0458 7.57367 24.2739C7.85274 24.502 8.20208 24.6266 8.5625 24.6266C8.92292 24.6266 9.27226 24.502 9.55133 24.2739C9.8304 24.0458 10.022 23.7282 10.0938 23.375ZM21.9338 23.905C22.1001 24.1647 22.3397 24.3694 22.6221 24.4932C22.9046 24.6171 23.2174 24.6546 23.5211 24.6011C23.8249 24.5476 24.106 24.4054 24.3291 24.1925C24.5523 23.9795 24.7074 23.7053 24.775 23.4044L21.9338 23.905Z" fill="black"/>
<path d="M5.23125 15.25C5.24339 15.2159 5.25652 15.1821 5.27062 15.1487L5.23125 15.25ZM5.23125 15.25C5.1625 15.4456 5.125 15.6563 5.125 15.875V16.5H14.5V15.875C14.4992 15.6638 14.4662 15.4633 14.4012 15.2738L14.3938 15.25C14.2644 14.8843 14.0249 14.5677 13.7081 14.3438C13.3913 14.1199 13.0129 13.9998 12.625 14H7C6.63139 13.9999 6.27092 14.1085 5.96367 14.3121C5.65642 14.5158 5.41601 14.8055 5.2725 15.145" fill="black"/>
</svg>
